<svg xmlns="http://www.w3.org/2000/svg" xmlns:xlink="http://www.w3.org/1999/xlink" viewBox="0,0,256,256" width="480px" height="480px" fill-rule="nonzero"><g fill="none" fill-rule="nonzero" stroke="none" stroke-width="1" stroke-linecap="butt" stroke-linejoin="miter" stroke-miterlimit="10" stroke-dasharray="" stroke-dashoffset="0" font-family="none" font-weight="none" font-size="none" text-anchor="none" style="mix-blend-mode: normal"><g transform="scale(5.33333,5.33333)"><circle cx="24" cy="24" r="20" fill="#1a96f5"></circle><path d="M22.491,30.69c-0.576,0 -1.152,-0.22 -1.591,-0.659l-6.083,-6.084c-0.879,-0.878 -0.879,-2.303 0,-3.182c0.878,-0.879 2.304,-0.879 3.182,0l6.083,6.084c0.879,0.878 0.879,2.303 0,3.182c-0.439,0.439 -1.015,0.659 -1.591,0.659z" fill="#ffffff"></path><path d="M22.491,30.69c-0.576,0 -1.152,-0.22 -1.591,-0.659c-0.879,-0.878 -0.879,-2.303 0,-3.182l9.539,-9.539c0.878,-0.879 2.304,-0.879 3.182,0c0.879,0.878 0.879,2.303 0,3.182l-9.539,9.539c-0.439,0.439 -1.015,0.659 -1.591,0.659z" fill="#ffffff"></path></g></g></svg>