<svg xmlns="http://www.w3.org/2000/svg" xmlns:xlink="http://www.w3.org/1999/xlink" viewBox="0,0,256,256" width="480px" height="480px" fill-rule="nonzero"><g fill="#ffffff" fill-rule="nonzero" stroke="none" stroke-width="1" stroke-linecap="butt" stroke-linejoin="miter" stroke-miterlimit="10" stroke-dasharray="" stroke-dashoffset="0" font-family="none" font-weight="none" font-size="none" text-anchor="none" style="mix-blend-mode: normal"><g transform="scale(3.2,3.2)"><path d="M40,10.69922c-7.25887,0 -13.85679,2.62966 -18.98828,6.96875l-9.91211,-5.96875c0,-0.1 -0.09961,-0.09961 -0.09961,-0.09961c-0.8,-0.3 -1.30078,-0.5 -1.80078,-0.5c-0.7,0 -1.29883,0.30078 -1.79883,0.80078c-1,1 -1,2.59961 0,3.59961c1.48294,1.56532 4.77447,5.13717 8.01172,8.65039c-2.97008,4.58823 -4.71289,9.998 -4.71289,15.84961c0,16.2 13.20078,29.30078 29.30078,29.30078c16.1,0 29.30078,-13.10078 29.30078,-29.30078c0,-16.2 -13.10078,-29.30078 -29.30078,-29.30078zM39.90039,12.69922c15.1,0 27.29883,12.30078 27.29883,27.30078c0,15 -12.09922,27.30078 -27.19922,27.30078c-15.1,0 -27.30078,-12.20078 -27.30078,-27.30078c0,-5.24764 1.53996,-10.14675 4.12305,-14.32617c4.16282,4.5219 8.50039,9.24144 11.07813,12.02539c2.7,2.9 5.90039,5 9.40039,6c1.08807,0.25109 2.02613,0.42421 2.83398,0.47656l5.01758,3c-0.188,1.68577 0.30914,3.49928 1.84766,4.92383l0.09961,0.09961c2.93906,2.58281 3.48971,3.66455 2.58789,5.56445c-0.13902,0.04882 -0.27137,0.12098 -0.38672,0.23633c-0.2,0.2 -0.30078,0.39922 -0.30078,0.69922c0,0.1 0.09961,0.30039 0.09961,0.40039c0,0.03252 0.02331,0.06514 0.04102,0.09766c0.03946,0.23367 0.16229,0.4557 0.35938,0.60352c0.2,0.1 0.39961,0.19922 0.59961,0.19922c0.6,0 1.09961,-0.5 1.59961,-1c3.8,-3.9 6.9,-10.29922 3,-15.19922l-0.09961,-0.10156c-0.3,-0.2 -0.60039,-0.49922 -0.90039,-0.69922c-1.2994,-1.01065 -2.61949,-1.29731 -3.82031,-1.11719l-3.82227,-4.2793c-0.18404,-1.62205 -1.21305,-5.61381 -6.55664,-8.80273l-16.70898,-10.0625c4.69156,-3.79819 10.67575,-6.03906 17.10938,-6.03906zM9.19922,13.09961c0.1,0 0.30039,0.00078 0.90039,0.30078l28.40039,17c5.4,3.2 5.59961,7.29922 5.59961,7.69922c0,1.2 -0.39961,2.30117 -1.09961,3.20117c-1.1,1.3 -3.39961,0.89844 -5.09961,0.39844c-3.1,-0.9 -6.1,-2.79844 -8.5,-5.39844c-5,-5.4 -16.89961,-18.40117 -20.59961,-22.20117c-0.2,-0.2 -0.2,-0.59883 0,-0.79883c0.1,-0.1 0.19844,-0.20117 0.39844,-0.20117zM16.09961,36.42578c-0.125,0 -0.25039,0.02422 -0.40039,0.07422c-0.1,0 -0.19883,0.09922 -0.29883,0.19922c-0.2,0.2 -0.30078,0.40117 -0.30078,0.70117c0,0.1 0.09961,0.30039 0.09961,0.40039c0,0.1 0.10117,0.19883 0.20117,0.29883c0.2,0.2 0.39922,0.30078 0.69922,0.30078c0.1,0 0.30039,-0.09961 0.40039,-0.09961c0.1,0 0.20078,-0.10117 0.30078,-0.20117c0.1,-0.1 0.19922,-0.19883 0.19922,-0.29883c0.1,-0.1 0.09961,-0.30039 0.09961,-0.40039c0,-0.3 -0.09883,-0.50117 -0.29883,-0.70117c-0.1,-0.1 -0.20078,-0.09922 -0.30078,-0.19922c-0.15,-0.05 -0.27539,-0.07422 -0.40039,-0.07422zM45.76953,40.25586l2.13867,2.39258c-0.48942,0.31793 -0.93402,0.70754 -1.30859,1.15234c-0.33322,0.38876 -0.60192,0.84355 -0.83398,1.32422l-2.50781,-1.48633c0.52721,-0.27784 0.92894,-0.63632 1.24219,-1.03906c0.56443,-0.67731 0.99593,-1.4835 1.26953,-2.34375zM15.80078,40.30078c-0.6,0 -1,0.4 -1,1c0,0.5 0.4,1 1,1c0.6,0 1,-0.4 1,-1c0,-0.6 -0.5,-1 -1,-1zM20.10156,41.70508c-0.29531,-0.04219 -0.57578,0.06992 -0.80078,0.29492c-0.2,0.2 -0.30078,0.39922 -0.30078,0.69922c0,0.3 0.10078,0.50117 0.30078,0.70117c0.1,0.1 0.19883,0.19922 0.29883,0.19922c0.1,0.1 0.30039,0.09961 0.40039,0.09961c0.3,0 0.49922,-0.09883 0.69922,-0.29883c0.2,-0.2 0.30078,-0.40117 0.30078,-0.70117c0,-0.2 -0.10078,-0.49922 -0.30078,-0.69922c-0.1,-0.1 -0.19883,-0.19922 -0.29883,-0.19922c-0.1,-0.05 -0.20039,-0.08164 -0.29883,-0.0957zM50.69922,43.80078c0.6,0 1.20078,0.19922 1.80078,0.69922c0.3,0.2 0.49922,0.39961 0.69922,0.59961c1.1,1.5 1.60078,3.10039 1.30078,4.90039c-0.3,2 -1.4,4 -2.5,5.5c-0.3,-1.7 -1.7,-3.20078 -3.5,-4.80078l-0.09961,-0.09961c-1.7,-1.6 -1.39961,-4 -0.09961,-5.5c0.6,-0.7 1.39844,-1.29883 2.39844,-1.29883zM16.78516,43.93945c-0.12969,-0.00781 -0.25977,0.01055 -0.38477,0.06055c-0.5,0.2 -0.79961,0.80078 -0.59961,1.30078c0.1,0.4 0.5,0.69961 1,0.59961h0.29883c0.5,-0.2 0.79961,-0.80078 0.59961,-1.30078c-0.15,-0.375 -0.525,-0.63672 -0.91406,-0.66016zM21.6875,45.06641c-0.13125,0.01563 -0.26172,0.05781 -0.38672,0.13281c-0.5,0.3 -0.70039,0.90039 -0.40039,1.40039c0.2,0.4 0.50039,0.5 0.90039,0.5c0.2,0 0.3,0.00039 0.5,-0.09961c0.5,-0.3 0.69844,-0.90039 0.39844,-1.40039c-0.225,-0.375 -0.61797,-0.58008 -1.01172,-0.5332zM18.08594,47.62305c-0.12969,0.00156 -0.26172,0.02617 -0.38672,0.07617c-0.5,0.2 -0.7,0.80078 -0.5,1.30078c0.2,0.4 0.60039,0.59961 0.90039,0.59961c0.1,0 0.30039,0.00039 0.40039,-0.09961c0.5,-0.2 0.7,-0.80078 0.5,-1.30078c-0.15,-0.375 -0.525,-0.58086 -0.91406,-0.57617zM24.03711,48.40039c-0.2625,-0.025 -0.53633,0.04922 -0.73633,0.19922c-0.5,0.3 -0.50117,1.00039 -0.20117,1.40039c0.2,0.2 0.50078,0.40039 0.80078,0.40039c0.2,0 0.39961,-0.10117 0.59961,-0.20117c0.5,-0.3 0.49922,-0.99844 0.19922,-1.39844c-0.15,-0.25 -0.39961,-0.37539 -0.66211,-0.40039zM44.375,50.23828c-0.25,-0.0375 -0.52539,0.01211 -0.77539,0.16211c-0.4,0.3 -0.49922,0.90039 -0.19922,1.40039c0.2,0.3 0.49883,0.39844 0.79883,0.39844c0.2,0 0.40156,-0.09922 0.60156,-0.19922c0.4,-0.3 0.49922,-0.90039 0.19922,-1.40039c-0.15,-0.2 -0.375,-0.32383 -0.625,-0.36133zM19.78711,50.96484c-0.13125,0.01719 -0.26172,0.05976 -0.38672,0.13477c-0.4,0.3 -0.60078,0.90039 -0.30078,1.40039c0.2,0.4 0.50039,0.5 0.90039,0.5c0.1,0 0.3,0.00078 0.5,-0.19922c0.4,-0.3 0.60078,-0.90039 0.30078,-1.40039c-0.225,-0.3 -0.61992,-0.48711 -1.01367,-0.43555zM26.5,51.15039c-0.25,0.025 -0.49922,0.14961 -0.69922,0.34961c-0.4,0.4 -0.30039,1.00039 0.09961,1.40039c0.2,0.2 0.39961,0.29883 0.59961,0.29883c0.3,0 0.60078,-0.19844 0.80078,-0.39844c0.4,-0.4 0.29844,-1.00039 -0.10156,-1.40039c-0.2,-0.2 -0.44922,-0.275 -0.69922,-0.25zM40.78516,52.36523c-0.12969,0.01563 -0.25977,0.05977 -0.38477,0.13477c-0.5,0.2 -0.70039,0.80078 -0.40039,1.30078c0.2,0.3 0.60078,0.5 0.80078,0.5c0.2,0 0.3,-0.00156 0.5,-0.10156c0.5,-0.2 0.69844,-0.79883 0.39844,-1.29883c-0.15,-0.375 -0.525,-0.58203 -0.91406,-0.53516zM29.81445,53.32422c-0.38906,-0.00469 -0.76406,0.20117 -0.91406,0.57617c-0.2,0.5 0,1.09883 0.5,1.29883c0.1,0.1 0.20039,0.10156 0.40039,0.10156c0.4,0 0.69844,-0.20156 0.89844,-0.60156c0.2,-0.5 0,-1.09883 -0.5,-1.29883c-0.125,-0.05 -0.25508,-0.07461 -0.38477,-0.07617zM37.48438,53.79688c-0.12812,-0.02188 -0.25977,-0.02109 -0.38477,0.00391c-0.5,0.1 -0.79922,0.69922 -0.69922,1.19922c0.1,0.4 0.50039,0.69922 0.90039,0.69922h0.29883c0.5,-0.1 0.90117,-0.69922 0.70117,-1.19922c-0.075,-0.375 -0.43203,-0.6375 -0.81641,-0.70312zM22.23828,54.15039c-0.2625,-0.025 -0.53828,0.05 -0.73828,0.25c-0.4,0.3 -0.49961,1.00039 -0.09961,1.40039c0.2,0.3 0.49883,0.39883 0.79883,0.29883c0.2,0 0.40156,0.00078 0.60156,-0.19922c0.4,-0.4 0.49961,-1.00039 0.09961,-1.40039c-0.15,-0.2 -0.39961,-0.32461 -0.66211,-0.34961zM33.3125,54.18945c-0.43066,0.03555 -0.8125,0.47266 -0.8125,0.91016c0,0.6 0.40039,1 0.90039,1c0.5,0.1 1,-0.30039 1,-0.90039c0.1,-0.5 -0.40039,-1 -0.90039,-1c-0.0625,-0.0125 -0.12598,-0.01484 -0.1875,-0.00977zM24.80078,56.94922c-0.25,0.025 -0.50117,0.15156 -0.70117,0.35156c-0.4,0.4 -0.30039,0.99844 0.09961,1.39844c0.2,0.2 0.50156,0.30078 0.60156,0.30078c0.3,0 0.59883,-0.20039 0.79883,-0.40039c0.4,-0.4 0.30039,-1.00039 -0.09961,-1.40039c-0.2,-0.2 -0.44922,-0.275 -0.69922,-0.25zM28.21289,59.06641c-0.39375,-0.04687 -0.78867,0.1582 -1.01367,0.5332c-0.2,0.5 -0.09961,1.10039 0.40039,1.40039c0.1,0.1 0.3,0.19961 0.5,0.09961c0.4,0 0.70039,-0.2 0.90039,-0.5c0.2,-0.5 0.09961,-1.10039 -0.40039,-1.40039c-0.125,-0.075 -0.25547,-0.11719 -0.38672,-0.13281zM46.78516,59.82422c-0.12969,0.00156 -0.25977,0.02617 -0.38477,0.07617c-0.5,0.2 -0.7,0.79883 -0.5,1.29883c0.1,0.4 0.50039,0.60156 0.90039,0.60156c0.1,0 0.29844,-0.10156 0.39844,-0.10156c0.5,-0.2 0.7,-0.79883 0.5,-1.29883c-0.15,-0.375 -0.525,-0.58086 -0.91406,-0.57617zM31.57227,60.63867c-0.40312,0.02344 -0.72305,0.28711 -0.87305,0.66211c-0.2,0.6 0.10156,1.09883 0.60156,1.29883c0.1,0.1 0.19883,0.09961 0.29883,0.09961c0.5,0 0.9,-0.29922 1,-0.69922c0.2,-0.6 -0.09961,-1.10078 -0.59961,-1.30078c-0.15,-0.05 -0.29336,-0.06836 -0.42773,-0.06055zM43.18359,60.99805c-0.12812,-0.02344 -0.25781,-0.02305 -0.38281,0.00195c-0.5,0.1 -0.80117,0.69922 -0.70117,1.19922c0.2,0.5 0.6,0.80078 1,0.80078h0.20117c0.5,-0.1 0.79922,-0.69922 0.69922,-1.19922c-0.075,-0.45 -0.43203,-0.73242 -0.81641,-0.80273zM35.5,61.5c-0.5,0 -0.99961,0.40039 -1.09961,0.90039c0,0.5 0.40039,0.99961 0.90039,1.09961h0.09961c0.5,0 0.9,-0.40039 1,-0.90039c0,-0.6 -0.40039,-0.99961 -0.90039,-1.09961zM39.19922,61.5c-0.5,0.1 -0.89844,0.59961 -0.89844,1.09961c0,0.6 0.5,1.00039 1,0.90039h0.09961c0.5,-0.1 0.90039,-0.59961 0.90039,-1.09961c-0.1,-0.5 -0.60156,-0.90039 -1.10156,-0.90039z"></path></g></g></svg>